<svg width="26" height="18" viewBox="0 0 26 18" fill="none" xmlns="http://www.w3.org/2000/svg">
<path d="M25.1796 2.81045C24.885 1.70591 24.0136 0.834546 22.905 0.535909C20.9005 1.9507e-07 12.8577 0 12.8577 0C12.8577 0 4.81909 1.9507e-07 2.81046 0.535909C1.70591 0.830455 0.834546 1.70182 0.535909 2.81045C0 4.815 0 9 0 9C0 9 0 13.185 0.535909 15.1895C0.830455 16.2941 1.70182 17.1655 2.81046 17.4641C4.81909 18 12.8577 18 12.8577 18C12.8577 18 20.9005 18 22.905 17.4641C24.0096 17.1695 24.8809 16.2982 25.1796 15.1895C25.7155 13.185 25.7155 9 25.7155 9C25.7155 9 25.7155 4.815 25.1796 2.81045Z" fill="white"/>
<path d="M10.293 12.858L16.9734 9.0003L10.293 5.14258V12.858Z" fill="#022B50"/>
</svg>
